# xmcd CD database file
#
# Track frame offsets:
#	150
#	14697
#	69246
#	118671
#	176001
#
# Disc length: 3052 seconds
#
# Revision: 0
# Processed by: cddbd v1.5.2PL0 Copyright (c) Steve Scherf et al.
# Submitted via: CDex 1.79
#
DISCID=3e0bea05
DTITLE=The second approach trio - A day for a Dave
DYEAR=2015
DGENRE=Jazz
TTITLE0=Prologue
TTITLE1=Variations on the Duke
TTITLE2=Lullaby for Dave
TTITLE3=A la rondo
TTITLE4=Four Monologues
EXTD=YEAR: 2015
EXTT0=
EXTT1=
EXTT2=
EXTT3=
EXTT4=
PLAYORDER=
